<mxfile host="app.diagrams.net" modified="2023-08-03T13:44:30.475Z" agent="Mozilla/5.0 (Windows NT 10.0; Win64; x64; rv:109.0) Gecko/20100101 Firefox/116.0" etag="ZpFiRj33kmF1e7lUV0TW" version="21.6.2" type="google">
  <diagram name="Page-1" id="bdhESgbJgkHlC2AF0bjx">
    <mxGraphModel dx="2524" dy="774" grid="1" gridSize="10" guides="1" tooltips="1" connect="1" arrows="1" fold="1" page="1" pageScale="1" pageWidth="850" pageHeight="1100" math="0" shadow="0">
      <root>
        <mxCell id="0" />
        <mxCell id="1" parent="0" />
        <mxCell id="xInRUHbBOY_Hcr7f0fOV-55" value="" style="rounded=0;whiteSpace=wrap;html=1;" vertex="1" parent="1">
          <mxGeometry x="-210" y="10" width="710" height="660" as="geometry" />
        </mxCell>
        <mxCell id="xInRUHbBOY_Hcr7f0fOV-16" style="edgeStyle=orthogonalEdgeStyle;rounded=0;orthogonalLoop=1;jettySize=auto;html=1;" edge="1" parent="1" source="xInRUHbBOY_Hcr7f0fOV-6" target="xInRUHbBOY_Hcr7f0fOV-13">
          <mxGeometry relative="1" as="geometry" />
        </mxCell>
        <mxCell id="xInRUHbBOY_Hcr7f0fOV-38" style="edgeStyle=orthogonalEdgeStyle;rounded=0;orthogonalLoop=1;jettySize=auto;html=1;entryX=1;entryY=1;entryDx=0;entryDy=0;" edge="1" parent="1" source="xInRUHbBOY_Hcr7f0fOV-6" target="xInRUHbBOY_Hcr7f0fOV-21">
          <mxGeometry relative="1" as="geometry" />
        </mxCell>
        <mxCell id="xInRUHbBOY_Hcr7f0fOV-45" style="edgeStyle=orthogonalEdgeStyle;rounded=0;orthogonalLoop=1;jettySize=auto;html=1;" edge="1" parent="1" source="xInRUHbBOY_Hcr7f0fOV-6" target="xInRUHbBOY_Hcr7f0fOV-8">
          <mxGeometry relative="1" as="geometry" />
        </mxCell>
        <mxCell id="xInRUHbBOY_Hcr7f0fOV-6" value="MS CART" style="rounded=0;whiteSpace=wrap;html=1;" vertex="1" parent="1">
          <mxGeometry x="130" y="380" width="120" height="60" as="geometry" />
        </mxCell>
        <mxCell id="xInRUHbBOY_Hcr7f0fOV-15" style="edgeStyle=orthogonalEdgeStyle;rounded=0;orthogonalLoop=1;jettySize=auto;html=1;entryX=0;entryY=0.5;entryDx=0;entryDy=0;entryPerimeter=0;" edge="1" parent="1" source="xInRUHbBOY_Hcr7f0fOV-7" target="xInRUHbBOY_Hcr7f0fOV-13">
          <mxGeometry relative="1" as="geometry" />
        </mxCell>
        <mxCell id="xInRUHbBOY_Hcr7f0fOV-37" style="edgeStyle=orthogonalEdgeStyle;rounded=0;orthogonalLoop=1;jettySize=auto;html=1;entryX=0.25;entryY=1;entryDx=0;entryDy=0;" edge="1" parent="1" source="xInRUHbBOY_Hcr7f0fOV-7" target="xInRUHbBOY_Hcr7f0fOV-21">
          <mxGeometry relative="1" as="geometry" />
        </mxCell>
        <mxCell id="xInRUHbBOY_Hcr7f0fOV-44" style="edgeStyle=orthogonalEdgeStyle;rounded=0;orthogonalLoop=1;jettySize=auto;html=1;entryX=0.5;entryY=1;entryDx=0;entryDy=0;" edge="1" parent="1" source="xInRUHbBOY_Hcr7f0fOV-7" target="xInRUHbBOY_Hcr7f0fOV-6">
          <mxGeometry relative="1" as="geometry" />
        </mxCell>
        <mxCell id="xInRUHbBOY_Hcr7f0fOV-7" value="MS FOOD" style="rounded=0;whiteSpace=wrap;html=1;" vertex="1" parent="1">
          <mxGeometry x="130" y="500" width="120" height="60" as="geometry" />
        </mxCell>
        <mxCell id="xInRUHbBOY_Hcr7f0fOV-17" style="edgeStyle=orthogonalEdgeStyle;rounded=0;orthogonalLoop=1;jettySize=auto;html=1;" edge="1" parent="1" source="xInRUHbBOY_Hcr7f0fOV-8" target="xInRUHbBOY_Hcr7f0fOV-11">
          <mxGeometry relative="1" as="geometry" />
        </mxCell>
        <mxCell id="xInRUHbBOY_Hcr7f0fOV-31" style="edgeStyle=orthogonalEdgeStyle;rounded=0;orthogonalLoop=1;jettySize=auto;html=1;entryX=0.5;entryY=1;entryDx=0;entryDy=0;" edge="1" parent="1" source="xInRUHbBOY_Hcr7f0fOV-8" target="xInRUHbBOY_Hcr7f0fOV-21">
          <mxGeometry relative="1" as="geometry" />
        </mxCell>
        <mxCell id="xInRUHbBOY_Hcr7f0fOV-8" value="MS CUSTOMERS" style="rounded=0;whiteSpace=wrap;html=1;" vertex="1" parent="1">
          <mxGeometry x="130" y="270" width="120" height="60" as="geometry" />
        </mxCell>
        <mxCell id="xInRUHbBOY_Hcr7f0fOV-18" style="edgeStyle=orthogonalEdgeStyle;rounded=0;orthogonalLoop=1;jettySize=auto;html=1;entryX=0;entryY=0;entryDx=0;entryDy=27.5;entryPerimeter=0;" edge="1" parent="1" source="xInRUHbBOY_Hcr7f0fOV-9" target="xInRUHbBOY_Hcr7f0fOV-12">
          <mxGeometry relative="1" as="geometry" />
        </mxCell>
        <mxCell id="xInRUHbBOY_Hcr7f0fOV-35" style="edgeStyle=orthogonalEdgeStyle;rounded=0;orthogonalLoop=1;jettySize=auto;html=1;entryX=0.75;entryY=1;entryDx=0;entryDy=0;" edge="1" parent="1" source="xInRUHbBOY_Hcr7f0fOV-9" target="xInRUHbBOY_Hcr7f0fOV-21">
          <mxGeometry relative="1" as="geometry" />
        </mxCell>
        <mxCell id="xInRUHbBOY_Hcr7f0fOV-9" value="MS VENDORS" style="rounded=0;whiteSpace=wrap;html=1;" vertex="1" parent="1">
          <mxGeometry x="130" y="180" width="120" height="60" as="geometry" />
        </mxCell>
        <mxCell id="xInRUHbBOY_Hcr7f0fOV-11" value="CUSTOMERS" style="shape=cylinder3;whiteSpace=wrap;html=1;boundedLbl=1;backgroundOutline=1;size=15;" vertex="1" parent="1">
          <mxGeometry x="720" y="260" width="60" height="80" as="geometry" />
        </mxCell>
        <mxCell id="xInRUHbBOY_Hcr7f0fOV-12" value="VENDORS" style="shape=cylinder3;whiteSpace=wrap;html=1;boundedLbl=1;backgroundOutline=1;size=15;" vertex="1" parent="1">
          <mxGeometry x="750" y="160" width="60" height="80" as="geometry" />
        </mxCell>
        <mxCell id="xInRUHbBOY_Hcr7f0fOV-13" value="FOOD/CART" style="shape=cylinder3;whiteSpace=wrap;html=1;boundedLbl=1;backgroundOutline=1;size=15;" vertex="1" parent="1">
          <mxGeometry x="680" y="440" width="60" height="80" as="geometry" />
        </mxCell>
        <mxCell id="xInRUHbBOY_Hcr7f0fOV-56" value="" style="edgeStyle=orthogonalEdgeStyle;rounded=0;orthogonalLoop=1;jettySize=auto;html=1;" edge="1" parent="1" source="xInRUHbBOY_Hcr7f0fOV-19" target="xInRUHbBOY_Hcr7f0fOV-55">
          <mxGeometry relative="1" as="geometry" />
        </mxCell>
        <mxCell id="xInRUHbBOY_Hcr7f0fOV-19" value="CONFIG SERVER" style="rounded=1;whiteSpace=wrap;html=1;" vertex="1" parent="1">
          <mxGeometry x="530" y="20" width="120" height="60" as="geometry" />
        </mxCell>
        <mxCell id="xInRUHbBOY_Hcr7f0fOV-23" style="edgeStyle=orthogonalEdgeStyle;rounded=0;orthogonalLoop=1;jettySize=auto;html=1;entryX=0;entryY=0.75;entryDx=0;entryDy=0;" edge="1" parent="1" source="xInRUHbBOY_Hcr7f0fOV-20" target="xInRUHbBOY_Hcr7f0fOV-8">
          <mxGeometry relative="1" as="geometry" />
        </mxCell>
        <mxCell id="xInRUHbBOY_Hcr7f0fOV-24" style="edgeStyle=orthogonalEdgeStyle;rounded=0;orthogonalLoop=1;jettySize=auto;html=1;entryX=0;entryY=0.5;entryDx=0;entryDy=0;" edge="1" parent="1" source="xInRUHbBOY_Hcr7f0fOV-20" target="xInRUHbBOY_Hcr7f0fOV-7">
          <mxGeometry relative="1" as="geometry" />
        </mxCell>
        <mxCell id="xInRUHbBOY_Hcr7f0fOV-25" style="edgeStyle=orthogonalEdgeStyle;rounded=0;orthogonalLoop=1;jettySize=auto;html=1;entryX=0;entryY=0.5;entryDx=0;entryDy=0;" edge="1" parent="1" source="xInRUHbBOY_Hcr7f0fOV-20" target="xInRUHbBOY_Hcr7f0fOV-6">
          <mxGeometry relative="1" as="geometry" />
        </mxCell>
        <mxCell id="xInRUHbBOY_Hcr7f0fOV-26" style="edgeStyle=orthogonalEdgeStyle;rounded=0;orthogonalLoop=1;jettySize=auto;html=1;entryX=0;entryY=0.75;entryDx=0;entryDy=0;" edge="1" parent="1" source="xInRUHbBOY_Hcr7f0fOV-20" target="xInRUHbBOY_Hcr7f0fOV-9">
          <mxGeometry relative="1" as="geometry" />
        </mxCell>
        <mxCell id="xInRUHbBOY_Hcr7f0fOV-47" style="edgeStyle=orthogonalEdgeStyle;rounded=0;orthogonalLoop=1;jettySize=auto;html=1;exitX=1;exitY=0;exitDx=0;exitDy=0;entryX=0;entryY=0.25;entryDx=0;entryDy=0;" edge="1" parent="1" source="xInRUHbBOY_Hcr7f0fOV-20" target="xInRUHbBOY_Hcr7f0fOV-21">
          <mxGeometry relative="1" as="geometry" />
        </mxCell>
        <mxCell id="xInRUHbBOY_Hcr7f0fOV-51" style="edgeStyle=orthogonalEdgeStyle;rounded=0;orthogonalLoop=1;jettySize=auto;html=1;entryX=0.75;entryY=0;entryDx=0;entryDy=0;" edge="1" parent="1" source="xInRUHbBOY_Hcr7f0fOV-20" target="xInRUHbBOY_Hcr7f0fOV-49">
          <mxGeometry relative="1" as="geometry" />
        </mxCell>
        <mxCell id="xInRUHbBOY_Hcr7f0fOV-20" value="GATEWAY" style="rounded=1;whiteSpace=wrap;html=1;" vertex="1" parent="1">
          <mxGeometry x="-380" y="330" width="120" height="60" as="geometry" />
        </mxCell>
        <mxCell id="xInRUHbBOY_Hcr7f0fOV-48" style="edgeStyle=orthogonalEdgeStyle;rounded=0;orthogonalLoop=1;jettySize=auto;html=1;entryX=0.5;entryY=0;entryDx=0;entryDy=0;" edge="1" parent="1" source="xInRUHbBOY_Hcr7f0fOV-21" target="xInRUHbBOY_Hcr7f0fOV-20">
          <mxGeometry relative="1" as="geometry" />
        </mxCell>
        <mxCell id="xInRUHbBOY_Hcr7f0fOV-21" value="&lt;div&gt;REGISTRY&lt;/div&gt;&lt;div&gt;SERVER&lt;br&gt;&lt;/div&gt;" style="rounded=1;whiteSpace=wrap;html=1;" vertex="1" parent="1">
          <mxGeometry x="260" y="20" width="120" height="60" as="geometry" />
        </mxCell>
        <mxCell id="xInRUHbBOY_Hcr7f0fOV-41" style="edgeStyle=orthogonalEdgeStyle;rounded=0;orthogonalLoop=1;jettySize=auto;html=1;entryX=1;entryY=0.5;entryDx=0;entryDy=0;" edge="1" parent="1" source="xInRUHbBOY_Hcr7f0fOV-40" target="xInRUHbBOY_Hcr7f0fOV-19">
          <mxGeometry relative="1" as="geometry" />
        </mxCell>
        <mxCell id="xInRUHbBOY_Hcr7f0fOV-40" value="GITHUB" style="ellipse;whiteSpace=wrap;html=1;aspect=fixed;" vertex="1" parent="1">
          <mxGeometry x="720" y="10" width="80" height="80" as="geometry" />
        </mxCell>
        <mxCell id="xInRUHbBOY_Hcr7f0fOV-52" style="edgeStyle=orthogonalEdgeStyle;rounded=0;orthogonalLoop=1;jettySize=auto;html=1;entryX=0.25;entryY=1;entryDx=0;entryDy=0;" edge="1" parent="1" source="xInRUHbBOY_Hcr7f0fOV-49" target="xInRUHbBOY_Hcr7f0fOV-20">
          <mxGeometry relative="1" as="geometry" />
        </mxCell>
        <mxCell id="xInRUHbBOY_Hcr7f0fOV-49" value="CLIENT" style="rounded=0;whiteSpace=wrap;html=1;" vertex="1" parent="1">
          <mxGeometry x="-410" y="720" width="120" height="60" as="geometry" />
        </mxCell>
      </root>
    </mxGraphModel>
  </diagram>
</mxfile>
